<svg aria-hidden="true" style="position: absolute; width: 0; height: 0; overflow: hidden;" version="1.1" xmlns="http://www.w3.org/2000/svg" xmlns:xlink="http://www.w3.org/1999/xlink">
  <defs>

    <symbol id="up" viewBox="0 0 28 28">
      <title>Up</title>
      <path d="M26.297 20.797l-2.594 2.578c-0.391 0.391-1.016 0.391-1.406 0l-8.297-8.297-8.297 8.297c-0.391 0.391-1.016 0.391-1.406 0l-2.594-2.578c-0.391-0.391-0.391-1.031 0-1.422l11.594-11.578c0.391-0.391 1.016-0.391 1.406 0l11.594 11.578c0.391 0.391 0.391 1.031 0 1.422z"></path>
    </symbol>

    <symbol id="down" viewBox="0 0 28 28">
      <title>Down</title>
      <path d="M26.297 12.625l-11.594 11.578c-0.391 0.391-1.016 0.391-1.406 0l-11.594-11.578c-0.391-0.391-0.391-1.031 0-1.422l2.594-2.578c0.391-0.391 1.016-0.391 1.406 0l8.297 8.297 8.297-8.297c0.391-0.391 1.016-0.391 1.406 0l2.594 2.578c0.391 0.391 0.391 1.031 0 1.422z"></path>
    </symbol>

    <symbol id="right" viewBox="0 0 20 20">
      <title>right</title>
      <path d="M13.901 10.002l-8.303-8.628c-0.312-0.314-0.312-0.822 0-1.138 0.312-0.314 0.815-0.314 1.127 0l9.104 9.195c0.312 0.315 0.312 0.824 0 1.138l-9.104 9.195c-0.312 0.315-0.815 0.314-1.127 0-0.312-0.313-0.312-0.822 0-1.138l8.303-8.624z"></path>
    </symbol>

    <symbol id="icon-project_reboot_short" viewBox="0 0 45 32">
      <title>project reboot short</title>
      <path d="M38.119 29.333c2.046 0 3.719-1.6 3.719-3.555v-22.222c0-1.956-1.673-3.556-3.719-3.556h-31.611c-2.046 0-3.719 1.6-3.719 3.556v22.222c0 1.956 1.673 3.555 3.719 3.555h-6.508c0 1.956 5.578 2.667 8.368 2.667h27.892c2.789 0 8.368-0.711 8.368-2.667zM6.508 3.556h31.611v22.666h-31.611zM22.314 30.889c-1.022 0-1.859-0.8-1.859-1.778s0.837-1.778 1.859-1.778 1.859 0.8 1.859 1.778c0 0.977-0.837 1.778-1.859 1.778z"></path>
      <path d="M21.366 18.632l-0.195 4.054-0.026 0.242-5.45-0.319c-0.675-0.044-1.233-0.584-1.479-1.069-0.519-1.024 0.156-2.236 0.545-3.217 0 0 0.999 0.132 6.604 0.308zM16.345 12.177l2.335 4.175-1.907-1.013c-2.919 2.831-3.192 4.935-3.192 4.935l-2.465-3.933c-0.506-0.639-0.052-1.333-0.052-1.333s0.454-0.694 1.479-2.071l-1.816-0.947zM32.317 17.872l-2.439 3.955c-0.337 0.716-1.272 0.782-1.272 0.782s-0.921 0.077-2.842 0.132l0.104 1.807-2.984-4.043 2.738-3.988 0.091 1.906c4.399 0.452 6.604-0.551 6.604-0.551zM22.132 7.693c0 0-0.61 0.683-3.438 4.792l-4.113-2.060-0.247-0.132 2.919-3.922c0.363-0.485 1.181-0.661 1.817-0.606 1.297 0.099 2.232 1.168 3.062 1.928zM30.631 11.075l2.751 3.999c0.35 0.496 0.143 1.19-0.195 1.652-0.701 0.925-2.258 1.146-3.425 1.421 0 0-0.441-0.782-3.438-4.803l4.061-2.148zM28.775 8.586l1.842-0.914-2.855 4.109-5.437-0.22 1.959-0.947c-1.557-3.514-3.62-4.726-3.62-4.726l5.255 0.011c0.908-0.066 1.401 0.595 1.401 0.595s0.506 0.672 1.453 2.093z"></path>
    </symbol>

    <symbol id="icon-project_reboot" viewBox="0 0 1024 1024">
      <title>project reboot</title>
      <path fill="none" stroke="#fff" stroke-linejoin="round" stroke-linecap="round" stroke-width="27.278" d="M79.359 759.314c136.588 238.941 441.014 321.915 679.955 185.327v0c238.941-136.588 321.915-441.014 185.327-679.955v0C808.053 25.745 503.627-57.229 264.686 79.359v0C25.745 215.947-57.229 520.373 79.359 759.313v0z"/>
      <path fill="none" stroke="#fff" stroke-linejoin="round" stroke-linecap="round" stroke-width="117.313" d="M162.973 711.517c110.19 192.762 355.782 259.7 548.544 149.51v0c192.762-110.19 259.7-355.782 149.51-548.544v0c-110.19-192.762-355.782-259.7-548.544-149.51v0c-192.762 110.19-259.7 355.782-149.51 548.544v0z"/>
      <path fill="none" stroke="#fff" stroke-linejoin="round" stroke-linecap="round" stroke-width="13.104" d="M225.329 675.872c90.504 158.324 292.219 213.303 450.543 122.799v0c158.324-90.504 213.303-292.219 122.799-450.543v0c-90.504-158.324-292.219-213.303-450.543-122.799v0c-158.324 90.504-213.303 292.219-122.799 450.543v0z"/>
      <path fill="#000" d="M102.395 345.578l12.921-27.103q5.763-12.088 14.223-15.967 8.438-3.942 18.363.79 9.967 4.752 12.26 13.809 2.271 8.995-3.492 21.083l-5.136 10.773 21.971 10.474-7.785 16.33zm19.618-10.688l17.687 8.432 4.307-9.034q2.265-4.75 1.208-8.43-1.099-3.699-5.341-5.721t-7.765-.527-5.789 6.246zM236.848 207.628q4.243-3.784 4.66-6.988.451-3.236-2.77-6.848-3.19-3.577-6.425-3.463-3.2.083-7.443 3.867l-5.681 5.066 11.977 13.432zm2.637 14.395l17.669 19.814-13.502 12.04-46.69-52.359 20.621-18.388q10.346-9.225 18.246-10.038 7.936-.844 14.628 6.661 4.628 5.19 5.074 10.774.481 5.552-3.162 11.633 3.333-1.839 7.509-1.534 4.18.239 10.458 2.762l20.589 8.333-14.379 12.822-17.985-7.319q-5.431-2.208-8.713-1.863-3.246.313-6.543 3.253zM377.737 104.021q-7.854 2.589-10.27 9.818t1.056 17.76q3.457 10.487 9.698 14.861t14.095 1.785q7.899-2.604 10.315-9.832t-1.041-17.715q-3.472-10.532-9.713-14.906t-14.14-1.77zm-4.105-12.451q16.065-5.296 28.199.895t17.475 22.391q5.326 16.154-.747 28.348t-22.138 17.49q-16.02 5.282-28.199-.895-12.134-6.192-17.46-22.346-5.34-16.199.733-28.393 6.118-12.209 22.138-17.49zM521.398 70.575l18.074.762-2.669 63.283q-.552 13.098-7.961 19.276-7.362 6.18-21.774 5.572l-3.662-.154.576-13.661 2.817.119q5.634.238 8.63-2.787 3.043-3.023 3.301-9.126zM653.391 93.246l45.342 18.098-5.069 12.699-28.541-11.392-4.842 12.132 26.839 10.713-5.069 12.699-26.839-10.713-5.957 14.925 29.501 11.775-5.069 12.699-46.302-18.481zM792.844 261.636q-5.382-1.589-10.189-4.385t-9.042-6.867q-12.635-12.146-13.246-26.291-.579-14.179 11.047-26.272 11.658-12.127 25.816-12.074 14.19.019 26.825 12.166 4.234 4.07 7.218 8.764t4.783 10.008l-10.062 10.467q-1.247-5.957-3.663-10.496t-6.311-8.283q-6.978-6.708-15.274-6.079t-15.85 8.488q-7.522 7.825-7.824 16.139t6.677 15.022q3.896 3.745 8.526 5.98t10.632 3.246zM901.627 302.224l26.414 59.014-12.48 5.586-9.502-21.23-51.551 23.073-7.39-16.512 51.551-23.073-9.521-21.272zM177.55 739.219q3.219 4.686 6.345 5.503 3.153.856 7.142-1.885 3.951-2.714 4.245-5.937.321-3.185-2.898-7.871l-4.31-6.274-14.834 10.189zm-14.612.802l-21.883 15.031-10.243-14.911 57.825-39.72 15.643 22.774q7.848 11.426 7.659 19.366-.163 7.979-8.451 13.672-5.732 3.937-11.327 3.676-5.568-.222-11.142-4.603 1.405 3.539.575 7.643-.764 4.116-4.058 10.027l-10.862 19.375-10.908-15.88 9.527-16.919q2.875-5.11 2.946-8.408.098-3.26-2.403-6.9zM283.293 808.036l40.497 27.266-7.637 11.342-25.491-17.163-7.295 10.835 23.971 16.139-7.637 11.342-23.971-16.139-8.975 13.33 26.348 17.74-7.637 11.342-41.354-27.844zM425.145 902.825q4.173.932 6.738-.421t3.364-4.93q.788-3.531-.957-5.847-1.736-2.361-5.909-3.293l-9.768-2.181-3.236 14.491zm-6.091 30.078q5.32 1.188 8.481-.465 3.207-1.643 4.221-6.183.993-4.448-1.175-7.243-2.158-2.841-7.523-4.039l-10.364-2.314-4.004 17.931zm21.917-20.96q5.318 2.921 7.443 8.065t.681 11.611q-2.212 9.905-9.993 13.271t-21.447.315l-29.304-6.543 15.288-68.467 26.506 5.919q14.262 3.185 19.674 8.919 5.458 5.744 3.338 15.237-1.116 4.999-4.243 8.007-3.117 2.963-7.944 3.666zM578.096 891.445q-8.147 1.419-11.589 8.219t-1.54 17.725q1.894 10.878 7.433 16.114t13.685 3.817q8.194-1.427 11.636-8.227t1.548-17.678q-1.903-10.925-7.441-16.161t-13.732-3.809zm-2.249-12.915q16.665-2.902 27.769 4.989t14.03 24.695q2.918 16.757-4.864 27.938t-24.448 14.083q-16.619 2.894-27.769-4.989-11.104-7.891-14.022-24.649-2.926-16.804 4.856-27.984 7.829-11.189 24.448-14.083zM721.072 835.346q-6.948 4.485-7.464 12.089t5.498 16.921q5.989 9.277 13.131 11.937t14.09-1.825q6.987-4.511 7.504-12.115t-5.472-16.881q-6.014-9.317-13.156-11.977t-14.13 1.85zm-7.11-11.014q14.212-9.174 27.515-6.24t22.553 17.264q9.225 14.291 6.421 27.622t-17.015 22.505q-14.172 9.149-27.515 6.24-13.303-2.934-22.528-17.224-9.251-14.33-6.447-27.661 2.843-13.356 17.015-22.505zM798.543 753.477l37.205-52.878 11.183 7.868-13.384 19.022 46.192 32.5-10.41 14.795-46.192-32.5-13.411 19.061z"/>
      <path fill="#fff" d="M680.533 654.172c21.812 0 39.654-17.058 39.654-37.912V379.308c0-20.854-17.842-37.914-39.654-37.914H343.468c-21.812 0-39.654 17.06-39.654 37.914V616.26c0 20.854 17.842 37.912 39.654 37.912h-69.395c0 20.854 59.482 28.434 89.223 28.434h297.409c29.741 0 89.223-7.58 89.223-28.434zM343.467 379.307h337.065v241.69H343.467zM512 670.758c-10.901 0-19.827-8.534-19.827-18.957s8.926-18.955 19.827-18.955c10.901 0 19.827 8.534 19.827 18.955 0 10.423-8.926 18.957-19.827 18.957z"/>
      <path fill="#fff" d="M501.899 540.064l-2.075 43.225-.277 2.584-58.108-3.406c-7.194-.47-13.143-6.225-15.772-11.394-5.534-10.924 1.66-23.844 5.811-34.298 0 0 10.653 1.41 70.421 3.289zm-53.542-68.831l24.903 44.517-20.338-10.806c-31.129 30.187-34.035 52.622-34.035 52.622L392.6 515.633c-5.396-6.813-.553-14.213-.553-14.213s4.842-7.4 15.772-22.082l-19.369-10.101zm170.311 60.726l-26.01 42.168c-3.597 7.635-13.558 8.34-13.558 8.34s-9.823.822-30.299 1.41l1.107 19.263-31.821-43.107 29.192-42.52.968 20.32c46.901 4.816 70.421-5.873 70.421-5.873zM510.062 423.427s-6.503 7.282-36.663 51.095l-43.857-21.965-2.629-1.41 31.129-41.815c3.874-5.168 12.59-7.048 19.369-6.46 13.835 1.057 23.796 12.451 32.651 20.555zm90.62 36.06l29.331 42.638c3.735 5.286 1.522 12.686-2.075 17.619-7.471 9.867-24.073 12.216-36.525 15.152 0 0-4.704-8.34-36.663-51.212l43.304-22.905zm-19.784-26.546l19.646-9.749-30.437 43.812-57.969-2.349 20.891-10.101c-16.602-37.469-38.6-50.39-38.6-50.39l56.032.117c9.685-.705 14.942 6.343 14.942 6.343s5.396 7.165 15.495 22.317zM413.521 787.34h12.922l8.732-44.991-14.605 2.819 1.37-6.813 14.527-2.819h7.949l-10.102 51.804h12.882l-1.253 6.657h-33.714zM462.898 792.704l1.449-7.205q2.271 1.488 5.169 2.271t6.226.783q8.105 0 13.039-5.13 4.973-5.13 7.401-15.976-2.898 3.328-6.735 5.09-3.798 1.723-8.184 1.723-7.126 0-11.355-4.111-4.19-4.151-4.19-11.12 0-5.717 2.075-10.611 2.075-4.934 6.108-8.614 2.741-2.584 6.343-3.955t7.675-1.37q8.105 0 12.804 5.169 4.699 5.129 4.699 14.018 0 8.262-2.193 15.976-2.154 7.714-5.991 13.352-4.072 5.952-9.789 9.045t-12.687 3.093q-3.015 0-6.03-.627-2.976-.587-5.834-1.801zm10.65-35.515q0 4.973 2.584 7.91 2.584 2.898 6.97 2.898 6.069 0 10.181-4.66t4.111-11.59q0-5.169-2.545-8.066-2.545-2.937-7.009-2.937-6.069 0-10.181 4.777-4.111 4.738-4.111 11.669zM513.958 792.704l1.449-7.205q2.271 1.488 5.169 2.271t6.226.783q8.105 0 13.039-5.13 4.973-5.13 7.401-15.976-2.898 3.328-6.735 5.09-3.798 1.723-8.184 1.723-7.126 0-11.355-4.111-4.19-4.151-4.19-11.12 0-5.717 2.075-10.611 2.075-4.934 6.108-8.614 2.741-2.584 6.343-3.955t7.675-1.37q8.105 0 12.804 5.169 4.699 5.129 4.699 14.018 0 8.262-2.193 15.976-2.154 7.714-5.991 13.352-4.072 5.952-9.789 9.045t-12.687 3.093q-3.015 0-6.03-.627-2.976-.587-5.834-1.801zm10.65-35.515q0 4.973 2.584 7.91 2.584 2.898 6.97 2.898 6.069 0 10.181-4.66t4.111-11.59q0-5.169-2.545-8.066-2.545-2.937-7.009-2.937-6.069 0-10.181 4.777-4.111 4.738-4.111 11.669zM571.753 735.536h40.018l-.705 3.367-33.44 55.093h-8.693l31.599-51.804H570.46z"/>
      <path fill="#000" d="M945.425 545.282l-23.808-7.849-21.655 20.031-5.107-24.543-28.175-8.739 18.701-16.694-6.519-28.769 23.808 7.849 21.655-20.031 5.107 24.543 28.175 8.739-18.701 16.694zM140.682 545.282l-23.808-7.849-21.655 20.031-5.107-24.543-28.175-8.739 18.701-16.694-6.519-28.769 23.808 7.849 21.655-20.031 5.107 24.543 28.175 8.739-18.701 16.694z"/>
    </symbol>    

  </defs>
</svg>
