<?xml version="1.0" encoding="UTF-8" standalone="no"?>
<svg
   xmlns:dc="http://purl.org/dc/elements/1.1/"
   xmlns:cc="http://creativecommons.org/ns#"
   xmlns:rdf="http://www.w3.org/1999/02/22-rdf-syntax-ns#"
   xmlns:svg="http://www.w3.org/2000/svg"
   xmlns="http://www.w3.org/2000/svg"
   xmlns:sodipodi="http://sodipodi.sourceforge.net/DTD/sodipodi-0.dtd"
   xmlns:inkscape="http://www.inkscape.org/namespaces/inkscape"
   viewBox="0 0 395.59378 283.66104"
   version="1.1"
   id="svg1648"
   sodipodi:docname="project_reboot_short.svg"
   width="395.59378"
   height="283.66104"
   inkscape:version="0.92.2 (5c3e80d, 2017-08-06)">
  <metadata
     id="metadata1654">
    <rdf:RDF>
      <cc:Work
         rdf:about="">
        <dc:format>image/svg+xml</dc:format>
        <dc:type
           rdf:resource="http://purl.org/dc/dcmitype/StillImage" />
        <dc:title></dc:title>
      </cc:Work>
    </rdf:RDF>
  </metadata>
  <defs
     id="defs1652" />
  <sodipodi:namedview
     pagecolor="#ffffff"
     bordercolor="#666666"
     borderopacity="1"
     objecttolerance="10"
     gridtolerance="10"
     guidetolerance="10"
     inkscape:pageopacity="0"
     inkscape:pageshadow="2"
     inkscape:window-width="1280"
     inkscape:window-height="960"
     id="namedview1650"
     showgrid="false"
     inkscape:zoom="0.4609375"
     inkscape:cx="148.98333"
     inkscape:cy="246.07156"
     inkscape:window-x="0"
     inkscape:window-y="27"
     inkscape:window-maximized="1"
     inkscape:current-layer="svg1648" />
  <g
     id="g2829"
     transform="matrix(0.460065,0,0,0.39059,165.35841,149.56287)">
    <path
       style="stroke-width:1.78218925"
       inkscape:connector-curvature="0"
       id="path1646"
       d="m 375.04509,282.80226 c 39.4144,0 71.6543,-36.30619 71.6543,-80.69178 V -302.2197 c 0,-44.38558 -32.2399,-80.69556 -71.6543,-80.69556 h -609.07324 c -39.4144,0 -71.6543,36.30998 -71.6543,80.69556 v 504.33018 c 0,44.38559 32.2399,80.69178 71.6543,80.69178 h -125.39586 c 0,44.38558 107.48313,60.51978 161.22468,60.51978 h 537.4156 c 53.74155,0 161.22468,-16.1342 161.22468,-60.51978 z M -234.02815,-302.2197 H 375.04509 V 212.1946 H -234.02815 Z M 70.508473,318.1042 c -19.697956,0 -35.827143,-18.1635 -35.827143,-40.34777 0,-22.1824 16.129187,-40.344 35.827143,-40.344 19.697964,0 35.827157,18.16349 35.827157,40.344 0,22.18427 -16.129193,40.34777 -35.827157,40.34777 z" />
    <path
       id="path2253"
       d="m 52.256273,39.934343 -3.75,92.000007 -0.5,5.5 -104.999995,-7.25 c -13,-1 -23.750003,-13.25 -28.500003,-24.25001 -10,-23.249997 3,-50.749997 10.500003,-72.999997 0,0 19.25,3 127.249995,7 z m -96.749999,-146.500013 45.00000025,94.749998 -36.75000025,-23 C -92.493725,29.434343 -97.743725,77.184343 -97.743725,77.184343 l -47.499995,-89.250015 c -9.75,-14.5 -1,-30.25 -1,-30.25 0,0 8.75,-15.75 28.5,-47.000001 l -35,-21.499997 z m 307.750006,129.250013 -47,89.750007 c -6.5,16.25 -24.5,17.75 -24.5,17.75 0,0 -17.75,1.75 -54.75,3 l 2,41 -57.500006,-91.750007 52.750006,-90.5000149 1.75,43.2500149 c 84.75,10.25 127.25,-12.5 127.25,-12.5 z M 67.006274,-208.31567 c 0,0 -11.750001,15.5 -66.24999975,108.749996 l -79.24999925,-46.749996 -4.75,-3 56.249999,-89 c 7,-11 22.7500003,-15 35.0000003,-13.75 24.9999997,2.25 42.9999987,26.5 58.9999997,43.75 z m 163.750006,76.75 53,90.749998 c 6.75,11.25 2.75,27 -3.75,37.5000001 -13.5,21.0000149 -43.5,26.0000149 -66,32.2500149 0,0 -8.5,-17.75002 -66.25,-109.000015 l 78.25,-48.749998 z m -35.75,-56.5 35.5,-20.75 -55,93.25 -104.750006,-5 37.749996,-21.5 c -29.999996,-79.75 -69.749996,-107.25 -69.749996,-107.25 l 101.250006,0.25 c 17.5,-1.5 27,13.5 27,13.5 0,0 9.75,15.25 28,47.5 z"
       style="fill:#000000"
       inkscape:connector-curvature="0" />
  </g>
</svg>
