<?xml version="1.0" encoding="UTF-8" standalone="no"?>
<!-- Created with Inkscape (http://www.inkscape.org/) -->

<svg
   xmlns:dc="http://purl.org/dc/elements/1.1/"
   xmlns:cc="http://creativecommons.org/ns#"
   xmlns:rdf="http://www.w3.org/1999/02/22-rdf-syntax-ns#"
   xmlns:svg="http://www.w3.org/2000/svg"
   xmlns="http://www.w3.org/2000/svg"
   xmlns:sodipodi="http://sodipodi.sourceforge.net/DTD/sodipodi-0.dtd"
   xmlns:inkscape="http://www.inkscape.org/namespaces/inkscape"
   width="225.2357mm"
   height="225.2357mm"
   viewBox="0 0 225.2357 225.2357"
   version="1.1"
   id="svg8"
   inkscape:version="0.92.2 (5c3e80d, 2017-08-06)"
   sodipodi:docname="project_reboot.svg">
  <defs
     id="defs2" />
  <sodipodi:namedview
     id="base"
     pagecolor="#ffffff"
     bordercolor="#666666"
     borderopacity="1.0"
     inkscape:pageopacity="0.0"
     inkscape:pageshadow="2"
     inkscape:zoom="0.22488436"
     inkscape:cx="589.92955"
     inkscape:cy="-11.924731"
     inkscape:document-units="mm"
     inkscape:current-layer="layer1"
     showgrid="false"
     showguides="true"
     inkscape:guide-bbox="true"
     inkscape:window-width="1280"
     inkscape:window-height="987"
     inkscape:window-x="1280"
     inkscape:window-y="0"
     inkscape:window-maximized="1" />
  <metadata
     id="metadata5">
    <rdf:RDF>
      <cc:Work
         rdf:about="">
        <dc:format>image/svg+xml</dc:format>
        <dc:type
           rdf:resource="http://purl.org/dc/dcmitype/StillImage" />
        <dc:title></dc:title>
      </cc:Work>
    </rdf:RDF>
  </metadata>
  <g
     inkscape:label="Layer 1"
     inkscape:groupmode="layer"
     id="layer1"
     transform="translate(289.5107,39.285982)">
    <path
       transform="matrix(-0.86816491,0.49627581,0.49627581,0.86816491,0,0)"
       style="opacity:1;fill:none;fill-opacity:1;fill-rule:nonzero;stroke:#000000;stroke-width:6;stroke-linecap:round;stroke-linejoin:round;stroke-miterlimit:4;stroke-dasharray:none;stroke-dashoffset:0;stroke-opacity:1;paint-order:fill markers stroke"
       d="M 299.57809,-24.123487 A 109.6131,109.6131 0 0 1 189.965,85.489611 109.6131,109.6131 0 0 1 80.351898,-24.123487 109.6131,109.6131 0 0 1 189.965,-133.73659 109.6131,109.6131 0 0 1 299.57809,-24.123487 Z"
       id="circle938" />
    <path
       transform="matrix(-0.86816492,0.49627581,0.49627581,0.86816492,0,0)"
       style="opacity:1;fill:none;fill-opacity:1;fill-rule:nonzero;stroke:#000000;stroke-width:25.80371666;stroke-linecap:round;stroke-linejoin:round;stroke-miterlimit:4;stroke-dasharray:none;stroke-dashoffset:0;stroke-opacity:1;paint-order:fill markers stroke"
       d="M 278.39392,-24.123486 A 88.428925,88.428925 0 0 1 189.965,64.305439 88.428925,88.428925 0 0 1 101.53607,-24.123486 88.428925,88.428925 0 0 1 189.965,-112.55241 a 88.428925,88.428925 0 0 1 88.42892,88.428924 z"
       id="circle940" />
    <path
       transform="matrix(-0.86816492,0.49627581,0.49627581,0.86816492,0,0)"
       style="opacity:1;fill:none;fill-opacity:1;fill-rule:nonzero;stroke:#000000;stroke-width:2.88234377;stroke-linecap:round;stroke-linejoin:round;stroke-miterlimit:4;stroke-dasharray:none;stroke-dashoffset:0;stroke-opacity:1;paint-order:fill markers stroke"
       d="M 262.59548,-24.123486 A 72.630486,72.630486 0 0 1 189.965,48.507 72.630486,72.630486 0 0 1 117.33451,-24.123486 72.630486,72.630486 0 0 1 189.965,-96.753971 a 72.630486,72.630486 0 0 1 72.63048,72.630485 z"
       id="circle942" />
    <g
       aria-label="PROJECT"
       style="font-style:normal;font-variant:normal;font-weight:bold;font-stretch:normal;font-size:21.16666603px;line-height:1.25;font-family:sans-serif;-inkscape-font-specification:'sans-serif, Bold';font-variant-ligatures:normal;font-variant-caps:normal;font-variant-numeric:normal;font-feature-settings:normal;text-align:start;letter-spacing:16.43590546px;word-spacing:0px;writing-mode:lr-tb;text-anchor:start;fill:#ffffff;fill-opacity:1;stroke:none;stroke-width:0.26458332"
       id="text886"
       transform="translate(-176.89286,-2.1740895)">
      <path
         d="m -90.095395,38.900402 2.84206,-5.961441 q 1.267586,-2.658859 3.128456,-3.512063 1.855989,-0.866981 4.039052,0.173773 2.192392,1.045202 2.696724,3.037444 0.49945,1.978464 -0.768136,4.637323 l -1.129708,2.369649 4.832593,2.303893 -1.712353,3.591791 z m 4.315235,-2.350892 3.89033,1.854678 0.947354,-1.987147 q 0.498139,-1.044885 0.265663,-1.854148 -0.241806,-0.813711 -1.174739,-1.258478 -0.932933,-0.444767 -1.708024,-0.115852 -0.775092,0.328915 -1.273231,1.3738 z"
         style="font-style:normal;font-variant:normal;font-weight:bold;font-stretch:normal;font-size:21.16666603px;font-family:sans-serif;-inkscape-font-specification:'sans-serif, Bold';font-variant-ligatures:normal;font-variant-caps:normal;font-variant-numeric:normal;font-feature-settings:normal;text-align:start;letter-spacing:16.43590546px;writing-mode:lr-tb;text-anchor:start;stroke-width:0.26458332;fill:#ffffff"
         id="path920"
         inkscape:connector-curvature="0" />
      <path
         d="m -60.521595,8.5573479 q 0.933366,-0.8323165 1.024944,-1.5371261 0.09929,-0.7116883 -0.60921,-1.5062072 -0.701622,-0.7868051 -1.413113,-0.7616428 -0.703777,0.018284 -1.637144,0.8506001 l -1.249631,1.114341 2.634522,2.9543761 z m 0.580089,3.1662051 3.886436,4.358283 -2.969804,2.64828 -10.269822,-11.5166667 4.5357,-4.0446454 q 2.275564,-2.0292014 4.013337,-2.20791244 1.745487,-0.18558974 3.217518,1.46515824 1.01804,1.1416388 1.11612,2.3697101 0.105794,1.2211928 -0.695451,2.5588381 0.733204,-0.4045653 1.651692,-0.3373599 0.919322,0.052613 2.30035,0.6074565 l 4.528726,1.8330032 -3.162648,2.8202463 -3.955886,-1.609897 q -1.194666,-0.485617 -1.916376,-0.409799 -0.713996,0.06894 -1.439091,0.715533 z"
         style="font-style:normal;font-variant:normal;font-weight:bold;font-stretch:normal;font-size:21.16666603px;font-family:sans-serif;-inkscape-font-specification:'sans-serif, Bold';font-variant-ligatures:normal;font-variant-caps:normal;font-variant-numeric:normal;font-feature-settings:normal;text-align:start;letter-spacing:16.43590546px;writing-mode:lr-tb;text-anchor:start;stroke-width:0.26458332;fill:#ffffff"
         id="path922"
         inkscape:connector-curvature="0" />
      <path
         d="m -29.532043,-14.23179 q -1.727553,0.569528 -2.258995,2.159449 -0.531442,1.58992 0.232244,3.9064106 0.76045,2.3066746 2.133241,3.2688195 1.372791,0.9621449 3.100343,0.3926164 1.737368,-0.5727644 2.26881,-2.162685 0.531442,-1.5899206 -0.229008,-3.8965955 -0.763685,-2.31649 -2.136477,-3.278635 -1.372791,-0.962145 -3.110158,-0.38938 z m -0.902833,-2.738563 q 3.53363,-1.164944 6.202627,0.196941 2.668997,1.361886 3.843649,4.924962 1.171417,3.5532607 -0.164366,6.2354171 -1.335783,2.6821564 -4.869412,3.847101 -3.523813,1.16170868 -6.202626,-0.1969412 -2.668997,-1.3618858 -3.840414,-4.9151463 -1.174652,-3.5630756 0.161131,-6.2452326 1.345598,-2.685392 4.869411,-3.847101 z"
         style="font-style:normal;font-variant:normal;font-weight:bold;font-stretch:normal;font-size:21.16666603px;font-family:sans-serif;-inkscape-font-specification:'sans-serif, Bold';font-variant-ligatures:normal;font-variant-caps:normal;font-variant-numeric:normal;font-feature-settings:normal;text-align:start;letter-spacing:16.43590546px;writing-mode:lr-tb;text-anchor:start;stroke-width:0.26458332;fill:#ffffff"
         id="path924"
         inkscape:connector-curvature="0" />
      <path
         d="m 2.0671604,-21.588542 3.9755523,0.16764 -0.5869563,13.9195955 q -0.1214842,2.8809847 -1.7511419,4.2398028 -1.6193316,1.3592536 -4.7894473,1.2255774 l -0.8054365,-0.033963 0.1267094,-3.0048979 0.6195665,0.026126 q 1.23913322,0.052251 1.89819955,-0.613037 Q 1.4235986,-6.3265518 1.4802042,-7.668946 Z"
         style="font-style:normal;font-variant:normal;font-weight:bold;font-stretch:normal;font-size:21.16666603px;font-family:sans-serif;-inkscape-font-specification:'sans-serif, Bold';font-variant-ligatures:normal;font-variant-caps:normal;font-variant-numeric:normal;font-feature-settings:normal;text-align:start;letter-spacing:16.43590546px;writing-mode:lr-tb;text-anchor:start;stroke-width:0.26458332;fill:#ffffff"
         id="path926"
         inkscape:connector-curvature="0" />
      <path
         d="m 31.099966,-16.601879 9.973251,3.980789 -1.114928,2.7932787 -6.277677,-2.5057137 -1.065119,2.6684928 5.90332,2.3562903 -1.114928,2.7932782 -5.90332,-2.3562902 -1.310327,3.2828219 6.488852,2.59000352 -1.114927,2.79327828 -10.184427,-4.0650796 z"
         style="font-style:normal;font-variant:normal;font-weight:bold;font-stretch:normal;font-size:21.16666603px;font-family:sans-serif;-inkscape-font-specification:'sans-serif, Bold';font-variant-ligatures:normal;font-variant-caps:normal;font-variant-numeric:normal;font-feature-settings:normal;text-align:start;letter-spacing:16.43590546px;writing-mode:lr-tb;text-anchor:start;stroke-width:0.26458332;fill:#ffffff"
         id="path928"
         inkscape:connector-curvature="0" />
      <path
         d="m 61.773624,20.436676 q -1.183731,-0.349446 -2.241129,-0.964528 -1.057398,-0.615082 -1.988749,-1.510413 -2.779154,-2.671667 -2.9136,-5.782894 -0.127284,-3.1186769 2.429781,-5.7786171 2.564228,-2.6673911 5.678336,-2.6557029 3.121271,0.00424 5.900424,2.675905 0.931352,0.895331 1.587641,1.9276583 0.65629,1.0323272 1.05213,2.2013627 L 69.0652,12.851748 Q 68.790836,11.541435 68.259482,10.543192 67.728127,9.5449494 66.871284,8.7212449 65.336416,7.2457394 63.511751,7.3840543 q -1.824666,0.1383149 -3.4864,1.8669035 -1.654572,1.7211382 -1.720845,3.5498372 -0.06627,1.8287 1.468594,3.304206 0.856843,0.823704 1.875258,1.315292 1.018414,0.491588 2.338525,0.714082 z"
         style="font-style:normal;font-variant:normal;font-weight:bold;font-stretch:normal;font-size:21.16666603px;font-family:sans-serif;-inkscape-font-specification:'sans-serif, Bold';font-variant-ligatures:normal;font-variant-caps:normal;font-variant-numeric:normal;font-feature-settings:normal;text-align:start;letter-spacing:16.43590546px;writing-mode:lr-tb;text-anchor:start;stroke-width:0.26458332;fill:#ffffff"
         id="path930"
         inkscape:connector-curvature="0" />
      <path
         d="m 85.701164,29.364401 5.809842,12.980471 -2.745143,1.228681 -2.090023,-4.669574 -11.339046,5.075167 -1.625573,-3.63189 11.339045,-5.075168 -2.094245,-4.679007 z"
         style="font-style:normal;font-variant:normal;font-weight:bold;font-stretch:normal;font-size:21.16666603px;font-family:sans-serif;-inkscape-font-specification:'sans-serif, Bold';font-variant-ligatures:normal;font-variant-caps:normal;font-variant-numeric:normal;font-feature-settings:normal;text-align:start;letter-spacing:16.43590546px;writing-mode:lr-tb;text-anchor:start;stroke-width:0.26458332;fill:#ffffff"
         id="path932"
         inkscape:connector-curvature="0" />
    </g>
    <g
       aria-label="REBOOT"
       style="font-style:normal;font-variant:normal;font-weight:bold;font-stretch:normal;font-size:21.16666603px;line-height:1.25;font-family:sans-serif;-inkscape-font-specification:'sans-serif, Bold';font-variant-ligatures:normal;font-variant-caps:normal;font-variant-numeric:normal;font-feature-settings:normal;text-align:start;letter-spacing:21.16666603px;word-spacing:0.74612498px;writing-mode:lr-tb;text-anchor:start;fill:#ffffff;fill-opacity:1;stroke:none;stroke-width:0.26458332"
       id="text890"
       transform="translate(-176.89286,-2.1740895)">
      <path
         d="m -73.564455,125.48433 q 0.708057,1.03081 1.395707,1.21048 0.693502,0.18819 1.570972,-0.41454 0.868951,-0.59687 0.933652,-1.30586 0.07055,-0.70047 -0.637504,-1.73129 l -0.947978,-1.3801 -3.262827,2.24121 z m -3.214067,0.17645 -4.813309,3.30622 -2.252909,-3.27986 12.719062,-8.73661 3.440808,5.00925 q 1.726255,2.51314 1.684546,4.25958 -0.03586,1.75496 -1.858952,3.00723 -1.260831,0.86605 -2.491472,0.80859 -1.224789,-0.0489 -2.450797,-1.01238 0.308941,0.77835 0.126523,1.68104 -0.168047,0.90537 -0.892505,2.20546 l -2.389104,4.26163 -2.399202,-3.49285 2.095585,-3.72147 q 0.632299,-1.12394 0.648036,-1.84945 0.02159,-0.71699 -0.528473,-1.51779 z"
         style="font-style:normal;font-variant:normal;font-weight:bold;font-stretch:normal;font-size:21.16666603px;font-family:sans-serif;-inkscape-font-specification:'sans-serif, Bold';font-variant-ligatures:normal;font-variant-caps:normal;font-variant-numeric:normal;font-feature-settings:normal;text-align:start;letter-spacing:21.16666603px;word-spacing:0.74612498px;writing-mode:lr-tb;text-anchor:start;stroke-width:0.26458332;fill:#ffffff"
         id="path958"
         inkscape:connector-curvature="0" />
      <path
         d="m -50.305608,140.62109 8.907507,5.99739 -1.679733,2.49479 -5.606842,-3.77507 -1.604693,2.38334 5.272489,3.54995 -1.679732,2.49479 -5.27249,-3.54995 -1.974118,2.93201 5.795451,3.90206 -1.679732,2.49479 -9.096116,-6.12438 z"
         style="font-style:normal;font-variant:normal;font-weight:bold;font-stretch:normal;font-size:21.16666603px;font-family:sans-serif;-inkscape-font-specification:'sans-serif, Bold';font-variant-ligatures:normal;font-variant-caps:normal;font-variant-numeric:normal;font-feature-settings:normal;text-align:start;letter-spacing:21.16666603px;word-spacing:0.74612498px;writing-mode:lr-tb;text-anchor:start;stroke-width:0.26458332;fill:#ffffff"
         id="path960"
         inkscape:connector-curvature="0" />
      <path
         d="m -19.104348,161.47048 q 0.917906,0.20496 1.482083,-0.0927 0.564176,-0.29761 0.739858,-1.08439 0.173429,-0.77669 -0.210561,-1.28602 -0.381738,-0.51942 -1.299644,-0.72439 l -2.148505,-0.47974 -0.711737,3.18745 z m -1.339642,6.61601 q 1.170078,0.26127 1.865482,-0.10235 0.70549,-0.36137 0.92847,-1.35997 0.218476,-0.97843 -0.258451,-1.59324 -0.474675,-0.62489 -1.65484,-0.88841 l -2.279635,-0.50903 -0.880661,3.94397 z m 4.820604,-4.61032 q 1.16969,0.64242 1.637121,1.774 0.467432,1.13159 0.149854,2.55384 -0.486503,2.17876 -2.197935,2.91913 -1.711431,0.74037 -4.717321,0.0692 l -6.445517,-1.43924 3.362728,-15.05971 5.830217,1.30184 q 3.137019,0.70048 4.327377,1.96172 1.200444,1.26349 0.734212,3.35148 -0.245504,1.09947 -0.933364,1.76129 -0.685608,0.65173 -1.747372,0.80647 z"
         style="font-style:normal;font-variant:normal;font-weight:bold;font-stretch:normal;font-size:21.16666603px;font-family:sans-serif;-inkscape-font-specification:'sans-serif, Bold';font-variant-ligatures:normal;font-variant-caps:normal;font-variant-numeric:normal;font-feature-settings:normal;text-align:start;letter-spacing:21.16666603px;word-spacing:0.74612498px;writing-mode:lr-tb;text-anchor:start;stroke-width:0.26458332;fill:#ffffff"
         id="path962"
         inkscape:connector-curvature="0" />
      <path
         d="m 14.538297,158.96751 q -1.792039,0.31209 -2.549182,1.80775 -0.757143,1.49567 -0.33867,3.89863 0.416701,2.39278 1.634874,3.54444 1.218172,1.15167 3.010211,0.83959 1.802221,-0.31386 2.559364,-1.80952 0.757143,-1.49567 0.340443,-3.88845 -0.418474,-2.40296 -1.636647,-3.55463 -1.218172,-1.15166 -3.020393,-0.83781 z m -0.494721,-2.84078 q 3.665534,-0.63835 6.107948,1.09742 2.442414,1.73576 3.086082,5.43184 0.641896,3.6859 -1.069962,6.14513 -1.711859,2.45924 -5.377393,3.09758 -3.655352,0.63658 -6.107948,-1.09741 -2.4424136,-1.73577 -3.0843093,-5.42167 -0.6436688,-3.69608 1.0681896,-6.15531 1.7220407,-2.46101 5.3773927,-3.09758 z"
         style="font-style:normal;font-variant:normal;font-weight:bold;font-stretch:normal;font-size:21.16666603px;font-family:sans-serif;-inkscape-font-specification:'sans-serif, Bold';font-variant-ligatures:normal;font-variant-caps:normal;font-variant-numeric:normal;font-feature-settings:normal;text-align:start;letter-spacing:21.16666603px;word-spacing:0.74612498px;writing-mode:lr-tb;text-anchor:start;stroke-width:0.26458332;fill:#ffffff"
         id="path964"
         inkscape:connector-curvature="0" />
      <path
         d="m 45.986769,146.62803 q -1.528254,0.98653 -1.641844,2.65907 -0.11359,1.67253 1.209256,3.72178 1.317241,2.04057 2.888203,2.62568 1.570963,0.58511 3.099216,-0.40142 1.536937,-0.99213 1.650527,-2.66467 0.11359,-1.67254 -1.203651,-3.7131 -1.322846,-2.04925 -2.893808,-2.63436 -1.570963,-0.58511 -3.107899,0.40702 z m -1.563873,-2.42263 q 3.125973,-2.0179 6.052045,-1.37262 2.926073,0.64527 4.960789,3.79729 2.029111,3.14334 1.412414,6.07557 -0.616698,2.93223 -3.742671,4.95013 -3.11729,2.01229 -6.052045,1.37263 -2.926073,-0.64528 -4.955184,-3.78862 -2.034716,-3.15202 -1.418019,-6.08425 0.625381,-2.93783 3.742671,-4.95013 z"
         style="font-style:normal;font-variant:normal;font-weight:bold;font-stretch:normal;font-size:21.16666603px;font-family:sans-serif;-inkscape-font-specification:'sans-serif, Bold';font-variant-ligatures:normal;font-variant-caps:normal;font-variant-numeric:normal;font-feature-settings:normal;text-align:start;letter-spacing:21.16666603px;word-spacing:0.74612498px;writing-mode:lr-tb;text-anchor:start;stroke-width:0.26458332;fill:#ffffff"
         id="path966"
         inkscape:connector-curvature="0" />
      <path
         d="m 63.027012,128.62049 8.183446,-11.63092 2.459735,1.73066 -2.943899,4.18409 10.160142,7.14862 -2.289699,3.25428 -10.160143,-7.14862 -2.949847,4.19254 z"
         style="font-style:normal;font-variant:normal;font-weight:bold;font-stretch:normal;font-size:21.16666603px;font-family:sans-serif;-inkscape-font-specification:'sans-serif, Bold';font-variant-ligatures:normal;font-variant-caps:normal;font-variant-numeric:normal;font-feature-settings:normal;text-align:start;letter-spacing:21.16666603px;word-spacing:0.74612498px;writing-mode:lr-tb;text-anchor:start;stroke-width:0.26458332;fill:#ffffff"
         id="path968"
         inkscape:connector-curvature="0" />
    </g>
    <g
       id="g2829"
       transform="matrix(0.12172553,0,0,0.1033436,-185.47553,75.377721)">
      <path
         style="stroke-width:1.78218925"
         inkscape:connector-curvature="0"
         id="path1646"
         d="m 375.04509,282.80226 c 39.4144,0 71.6543,-36.30619 71.6543,-80.69178 V -302.2197 c 0,-44.38558 -32.2399,-80.69556 -71.6543,-80.69556 h -609.07324 c -39.4144,0 -71.6543,36.30998 -71.6543,80.69556 v 504.33018 c 0,44.38559 32.2399,80.69178 71.6543,80.69178 h -125.39586 c 0,44.38558 107.48313,60.51978 161.22468,60.51978 h 537.4156 c 53.74155,0 161.22468,-16.1342 161.22468,-60.51978 z M -234.02815,-302.2197 H 375.04509 V 212.1946 H -234.02815 Z M 70.508473,318.1042 c -19.697956,0 -35.827143,-18.1635 -35.827143,-40.34777 0,-22.1824 16.129187,-40.344 35.827143,-40.344 19.697964,0 35.827157,18.16349 35.827157,40.344 0,22.18427 -16.129193,40.34777 -35.827157,40.34777 z" />
      <path
         id="path2253"
         d="m 52.256273,39.934343 -3.75,92.000007 -0.5,5.5 -104.999995,-7.25 c -13,-1 -23.750003,-13.25 -28.500003,-24.25001 -10,-23.249997 3,-50.749997 10.500003,-72.999997 0,0 19.25,3 127.249995,7 z m -96.749999,-146.500013 45.00000025,94.749998 -36.75000025,-23 C -92.493725,29.434343 -97.743725,77.184343 -97.743725,77.184343 l -47.499995,-89.250015 c -9.75,-14.5 -1,-30.25 -1,-30.25 0,0 8.75,-15.75 28.5,-47.000001 l -35,-21.499997 z m 307.750006,129.250013 -47,89.750007 c -6.5,16.25 -24.5,17.75 -24.5,17.75 0,0 -17.75,1.75 -54.75,3 l 2,41 -57.500006,-91.750007 52.750006,-90.5000149 1.75,43.2500149 c 84.75,10.25 127.25,-12.5 127.25,-12.5 z M 67.006274,-208.31567 c 0,0 -11.750001,15.5 -66.24999975,108.749996 l -79.24999925,-46.749996 -4.75,-3 56.249999,-89 c 7,-11 22.7500003,-15 35.0000003,-13.75 24.9999997,2.25 42.9999987,26.5 58.9999997,43.75 z m 163.750006,76.75 53,90.749998 c 6.75,11.25 2.75,27 -3.75,37.5000001 -13.5,21.0000149 -43.5,26.0000149 -66,32.2500149 0,0 -8.5,-17.75002 -66.25,-109.000015 l 78.25,-48.749998 z m -35.75,-56.5 35.5,-20.75 -55,93.25 -104.750006,-5 37.749996,-21.5 c -29.999996,-79.75 -69.749996,-107.25 -69.749996,-107.25 l 101.250006,0.25 c 17.5,-1.5 27,13.5 27,13.5 0,0 9.75,15.25 28,47.5 z"
         style="fill:#000000"
         inkscape:connector-curvature="0" />
    </g>
    <g
       aria-label="1997"
       style="font-style:italic;font-variant:normal;font-weight:normal;font-stretch:normal;font-size:17.63888931px;line-height:1.25;font-family:sans-serif;-inkscape-font-specification:'sans-serif, Italic';font-variant-ligatures:normal;font-variant-caps:normal;font-variant-numeric:normal;font-feature-settings:normal;text-align:start;letter-spacing:0px;word-spacing:0px;writing-mode:lr-tb;text-anchor:start;fill:#000000;fill-opacity:1;stroke:none;stroke-width:0.26458332"
       id="text2854">
      <path
         d="m -198.55389,133.89472 h 2.8422 l 1.92064,-9.89604 -3.21255,0.62012 0.30145,-1.49862 3.19532,-0.62011 h 1.74839 l -2.22209,11.39465 h 2.83359 l -0.2756,1.46417 h -7.41557 z"
         style="font-style:italic;font-variant:normal;font-weight:normal;font-stretch:normal;font-size:17.63888931px;font-family:sans-serif;-inkscape-font-specification:'sans-serif, Italic';font-variant-ligatures:normal;font-variant-caps:normal;font-variant-numeric:normal;font-feature-settings:normal;text-align:start;writing-mode:lr-tb;text-anchor:start;stroke-width:0.26458332"
         id="path2873" />
      <path
         d="m -187.69323,135.07467 0.31867,-1.58475 q 0.49954,0.32729 1.13688,0.49954 0.63735,0.17226 1.36943,0.17226 1.78284,0 2.86804,-1.12827 1.09382,-1.12827 1.62781,-3.514 -0.63734,0.73208 -1.48139,1.11966 -0.83544,0.37896 -1.80006,0.37896 -1.56752,0 -2.4977,-0.90434 -0.92156,-0.91295 -0.92156,-2.44602 0,-1.25746 0.45647,-2.33405 0.45648,-1.08521 1.34359,-1.8948 0.60289,-0.56844 1.39526,-0.86989 0.79238,-0.30145 1.6881,-0.30145 1.78284,0 2.81637,1.13689 1.03353,1.12826 1.03353,3.08336 0,1.81728 -0.48232,3.51399 -0.4737,1.69671 -1.31775,2.93695 -0.89572,1.30913 -2.15318,1.98954 -1.25746,0.68041 -2.79053,0.68041 -0.66318,0 -1.32636,-0.13781 -0.65457,-0.12919 -1.2833,-0.39618 z m 2.34267,-7.81176 q 0,1.09382 0.56844,1.73978 0.56844,0.63734 1.53306,0.63734 1.33498,0 2.23932,-1.02492 0.90433,-1.02491 0.90433,-2.54937 0,-1.13688 -0.55982,-1.77422 -0.55983,-0.64596 -1.54168,-0.64596 -1.33498,0 -2.23932,1.05076 -0.90433,1.04214 -0.90433,2.56659 z"
         style="font-style:italic;font-variant:normal;font-weight:normal;font-stretch:normal;font-size:17.63888931px;font-family:sans-serif;-inkscape-font-specification:'sans-serif, Italic';font-variant-ligatures:normal;font-variant-caps:normal;font-variant-numeric:normal;font-feature-settings:normal;text-align:start;writing-mode:lr-tb;text-anchor:start;stroke-width:0.26458332"
         id="path2875" />
      <path
         d="m -176.46222,135.07467 0.31867,-1.58475 q 0.49954,0.32729 1.13689,0.49954 0.63734,0.17226 1.36942,0.17226 1.78284,0 2.86804,-1.12827 1.09382,-1.12827 1.62781,-3.514 -0.63734,0.73208 -1.48139,1.11966 -0.83544,0.37896 -1.80006,0.37896 -1.56752,0 -2.4977,-0.90434 -0.92156,-0.91295 -0.92156,-2.44602 0,-1.25746 0.45648,-2.33405 0.45647,-1.08521 1.34358,-1.8948 0.60289,-0.56844 1.39527,-0.86989 0.79237,-0.30145 1.68809,-0.30145 1.78284,0 2.81637,1.13689 1.03353,1.12826 1.03353,3.08336 0,1.81728 -0.48232,3.51399 -0.4737,1.69671 -1.31775,2.93695 -0.89572,1.30913 -2.15318,1.98954 -1.25746,0.68041 -2.79053,0.68041 -0.66318,0 -1.32636,-0.13781 -0.65457,-0.12919 -1.2833,-0.39618 z m 2.34267,-7.81176 q 0,1.09382 0.56844,1.73978 0.56844,0.63734 1.53307,0.63734 1.33497,0 2.23931,-1.02492 0.90434,-1.02491 0.90434,-2.54937 0,-1.13688 -0.55983,-1.77422 -0.55983,-0.64596 -1.54168,-0.64596 -1.33498,0 -2.23931,1.05076 -0.90434,1.04214 -0.90434,2.56659 z"
         style="font-style:italic;font-variant:normal;font-weight:normal;font-stretch:normal;font-size:17.63888931px;font-family:sans-serif;-inkscape-font-specification:'sans-serif, Italic';font-variant-ligatures:normal;font-variant-caps:normal;font-variant-numeric:normal;font-feature-settings:normal;text-align:start;writing-mode:lr-tb;text-anchor:start;stroke-width:0.26458332"
         id="path2877" />
      <path
         d="m -163.74981,122.50007 h 8.80222 l -0.15503,0.74069 -7.35528,12.11813 h -1.91203 l 6.95048,-11.39466 h -6.61458 z"
         style="font-style:italic;font-variant:normal;font-weight:normal;font-stretch:normal;font-size:17.63888931px;font-family:sans-serif;-inkscape-font-specification:'sans-serif, Italic';font-variant-ligatures:normal;font-variant-caps:normal;font-variant-numeric:normal;font-feature-settings:normal;text-align:start;writing-mode:lr-tb;text-anchor:start;stroke-width:0.26458332"
         id="path2879" />
    </g>
    <path
       style="opacity:1;fill:#ffffff;fill-opacity:1;fill-rule:nonzero;stroke:none;stroke-width:0.69134611;stroke-linecap:round;stroke-linejoin:round;stroke-miterlimit:4;stroke-dasharray:none;stroke-dashoffset:0;stroke-opacity:1;paint-order:fill markers stroke"
       inkscape:transform-center-x="-1.6186036e-05"
       inkscape:transform-center-y="-1.1344257e-05"
       d="m -81.558032,80.652379 -5.236801,-1.726382 -4.763199,4.405874 -1.12331,-5.398394 -6.197198,-1.922114 4.113491,-3.672012 -1.433999,-6.327988 5.236801,1.726382 4.763199,-4.405874 1.12331,5.398394 6.197198,1.922114 -4.113491,3.672012 z"
       id="path2858" />
    <path
       style="opacity:1;fill:#ffffff;fill-opacity:1;fill-rule:nonzero;stroke:none;stroke-width:0.69134611;stroke-linecap:round;stroke-linejoin:round;stroke-miterlimit:4;stroke-dasharray:none;stroke-dashoffset:0;stroke-opacity:1;paint-order:fill markers stroke"
       inkscape:transform-center-x="-1.6186036e-05"
       inkscape:transform-center-y="-1.1344257e-05"
       d="m -258.56673,80.652379 -5.23681,-1.726382 -4.76319,4.405874 -1.12331,-5.398394 -6.1972,-1.922114 4.11349,-3.672012 -1.434,-6.327988 5.2368,1.726382 4.7632,-4.405874 1.12331,5.398394 6.1972,1.922114 -4.11349,3.672012 z"
       id="path2869"
       inkscape:connector-curvature="0" />
  </g>
</svg>
